<?xml version="1.0" encoding="UTF-8" standalone="no"?>
<!-- Created with Inkscape (http://www.inkscape.org/) -->
<svg xmlns:dc="http://purl.org/dc/elements/1.1/" xmlns:cc="http://creativecommons.org/ns#" xmlns:rdf="http://www.w3.org/1999/02/22-rdf-syntax-ns#" xmlns:svg="http://www.w3.org/2000/svg" xmlns="http://www.w3.org/2000/svg" xmlns:sodipodi="http://sodipodi.sourceforge.net/DTD/sodipodi-0.dtd" xmlns:inkscape="http://www.inkscape.org/namespaces/inkscape" width="187.85416mm" height="37.004921mm" viewBox="0 0 187.85416 37.004921" version="1.1" id="svg3866" inkscape:version="0.92.4 (5da689c313, 2019-01-14)" sodipodi:docname="velocity.svg">
  <defs id="defs3860"/>
  <sodipodi:namedview id="base" pagecolor="#ffffff" bordercolor="#666666" borderopacity="1.0" inkscape:pageopacity="0.0" inkscape:pageshadow="2" inkscape:zoom="0.35" inkscape:cx="1334.842" inkscape:cy="-142.19513" inkscape:document-units="mm" inkscape:current-layer="layer1" showgrid="false" fit-margin-top="0" fit-margin-left="0" fit-margin-right="0" fit-margin-bottom="0" inkscape:window-width="1600" inkscape:window-height="877" inkscape:window-x="-8" inkscape:window-y="-8" inkscape:window-maximized="1"/>
  <metadata id="metadata3863">
    <rdf:RDF>
      <cc:Work rdf:about="">
        <dc:format>image/svg+xml</dc:format>
        <dc:type rdf:resource="http://purl.org/dc/dcmitype/StillImage"/>
        <dc:title/>
      </cc:Work>
    </rdf:RDF>
  </metadata>
  <g inkscape:label="Layer 1" inkscape:groupmode="layer" id="layer1" transform="translate(238.78404,-151.31508)">
    <g id="g4534" transform="matrix(0.46465239,0,0,0.46465239,-122.17726,94.09703)">
      <path inkscape:connector-curvature="0" id="path4461" d="m -181.97182,127.87208 c -0.0126,-8e-5 -0.0227,1.07489 -0.0227,2.38848 v 2.38797 l -9.55084,-0.0155 -9.55032,-0.016 h -9.66401 v 5.64617 h 9.66401 8.79377 c 4.83679,10e-5 9.13481,0.009 9.55084,0.0202 l 0.75655,0.0202 v 2.36678 c 0,1.91745 0.007,2.364 0.0393,2.3518 0.10237,-0.0393 10.78095,-7.55134 10.77195,-7.57784 -0.006,-0.0167 -2.43003,-1.72737 -5.38778,-3.80132 -2.95776,-2.07395 -5.38811,-3.77076 -5.40071,-3.77082 z" style="fill:#264d80;fill-opacity:1;stroke-width:0.03056185"/>
      <circle r="27.395124" cy="162.96432" cx="-211.01468" id="path4463" style="opacity:1;fill:none;fill-opacity:1;stroke:#264d80;stroke-width:6;stroke-linecap:round;stroke-linejoin:bevel;stroke-miterlimit:4;stroke-dasharray:none;stroke-opacity:1"/>
      <path inkscape:connector-curvature="0" id="path4461-4" d="m -240.16632,182.91792 c 0.0126,-8e-5 0.0227,1.07489 0.0227,2.38848 v 2.38797 l 9.55084,-0.0155 9.55032,-0.016 h 9.66401 v 5.64617 h -9.66401 -8.79377 c -4.83679,1e-4 -9.13481,0.009 -9.55084,0.0202 l -0.75655,0.0202 v 2.36678 c 0,1.91745 -0.007,2.364 -0.0393,2.3518 -0.10237,-0.0393 -10.78095,-7.55134 -10.77195,-7.57784 0.006,-0.0167 2.43003,-1.72737 5.38778,-3.80132 2.95776,-2.07395 5.38811,-3.77076 5.40071,-3.77082 z" style="fill:#264d80;fill-opacity:1;stroke-width:0.03056185"/>
      <path inkscape:connector-curvature="0" id="path4461-4-7" d="m -230.96288,133.93019 c 8e-5,0.0126 -1.07489,0.0227 -2.38848,0.0227 h -2.38797 l 0.0155,9.55084 0.016,9.55032 v 9.66401 h -5.64617 v -9.66401 -8.79377 c -10e-5,-4.83679 -0.009,-9.13481 -0.0202,-9.55084 l -0.0202,-0.75655 h -2.36678 c -1.91745,0 -2.364,-0.007 -2.3518,-0.0393 0.0393,-0.10237 7.55134,-10.78095 7.57784,-10.77195 0.0167,0.006 1.72737,2.43003 3.80132,5.38778 2.07395,2.95776 3.77076,5.38811 3.77082,5.40071 z" style="fill:#264d80;fill-opacity:1;stroke-width:0.03056185"/>
      <path inkscape:connector-curvature="0" id="path4461-4-6" d="m -191.04496,191.99309 c -8e-5,-0.0126 1.07489,-0.0227 2.38848,-0.0227 h 2.38797 l -0.0155,-9.55084 -0.016,-9.55032 v -9.66401 h 5.64616 v 9.66401 8.79377 c 1e-4,4.83679 0.009,9.13481 0.0202,9.55084 l 0.0202,0.75655 h 2.36678 c 1.91745,0 2.364,0.007 2.3518,0.0393 -0.0393,0.10237 -7.55134,10.78095 -7.57784,10.77195 -0.0167,-0.006 -1.72737,-2.43003 -3.80132,-5.38778 -2.07395,-2.95776 -3.77076,-5.38811 -3.77082,-5.40071 z" style="fill:#264d80;fill-opacity:1;stroke-width:0.03056185"/>
    </g>
    <g aria-label="Apache Velocity" style="font-style:normal;font-variant:normal;font-weight:normal;font-stretch:normal;font-size:37.26682663px;line-height:125%;font-family:Montserrat;-inkscape-font-specification:Montserrat;letter-spacing:0px;word-spacing:0px;fill:#000000;fill-opacity:1;stroke:none;stroke-width:1.35515738px;stroke-linecap:butt;stroke-linejoin:miter;stroke-opacity:1" id="text4538" transform="matrix(0.46465239,0,0,0.46465239,-127.83247,100.81667)">
      <path d="m -142.37428,152.76705 -2.60867,5.92542 h -4.69562 l 11.47818,-26.04951 h 4.69562 l 11.47818,26.04951 h -4.69562 l -2.60868,-5.92542 z m 11.25459,-4.06209 -4.73289,-10.73284 -4.73289,10.73284 z" style="stroke-width:1.35515738px" id="path4549" inkscape:connector-curvature="0"/>
      <path d="m -108.37994,138.56839 q 3.98755,0 6.81983,2.75774 2.832277,2.75775 2.832277,7.34157 0,4.58382 -2.832277,7.45336 -2.79501,2.86955 -6.55896,2.86955 -3.72669,0 -6.70803,-3.27948 v 10.21111 h -4.17389 v -27.05572 h 4.17389 v 3.46582 q 2.45961,-3.76395 6.44716,-3.76395 z m -6.5217,10.24838 q 0,2.83227 1.71428,4.65835 1.71427,1.78881 4.17388,1.78881 2.45961,0 4.28569,-1.78881 1.82607,-1.78881 1.82607,-4.62109 0,-2.86954 -1.78881,-4.73288 -1.7888,-1.90061 -4.28568,-1.90061 -2.49688,0 -4.21115,1.90061 -1.71428,1.86334 -1.71428,4.69562 z" style="stroke-width:1.35515738px" id="path4551" inkscape:connector-curvature="0"/>
      <path d="m -77.900334,158.69247 h -3.801216 v -2.64594 q -2.459611,2.94408 -6.596229,2.94408 -3.093146,0 -5.142822,-1.75154 -2.012409,-1.75154 -2.012409,-4.65836 0,-2.94407 2.161476,-4.39748 2.161476,-1.45341 5.850892,-1.45341 h 5.40369 v -0.74533 q 0,-3.95029 -4.397485,-3.95029 -2.757746,0 -5.739092,2.01241 l -1.863341,-2.60868 q 3.614882,-2.86954 8.198702,-2.86954 3.503081,0 5.701824,1.78881 2.23601,1.75154 2.23601,5.55275 z m -4.173885,-7.37883 v -1.677 h -4.69562 q -4.509286,0 -4.509286,2.83227 0,1.45341 1.118005,2.23601 1.118005,0.74534 3.093146,0.74534 2.012409,0 3.503082,-1.118 1.490673,-1.11801 1.490673,-3.01862 z" style="stroke-width:1.35515738px" id="path4553" inkscape:connector-curvature="0"/>
      <path d="m -63.258552,158.99061 q -4.136618,0 -7.117964,-2.79501 -2.981346,-2.83228 -2.981346,-7.37883 0,-4.54656 3.093147,-7.37884 3.130413,-2.86954 7.602432,-2.86954 4.47202,0 7.565166,3.09314 l -2.45961,3.01862 q -2.571411,-2.23601 -5.180089,-2.23601 -2.608678,0 -4.546553,1.75154 -1.900608,1.71427 -1.900608,4.47202 0,2.72048 1.900608,4.62108 1.900608,1.90061 4.658353,1.90061 2.795012,0 5.254623,-2.53414 l 2.45961,2.68321 q -3.614882,3.65215 -8.347769,3.65215 z" style="stroke-width:1.35515738px" id="path4555" inkscape:connector-curvature="0"/>
      <path d="m -46.407539,147.95963 v 10.73284 h -4.173885 v -27.61471 h 4.173885 v 11.40364 q 0.894404,-1.82607 2.683211,-2.86954 1.826075,-1.04347 3.913017,-1.04347 3.354015,0 5.40369,2.04967 2.086942,2.04968 2.086942,5.92543 v 12.14898 h -4.173884 v -10.88191 q 0,-5.47822 -4.546553,-5.47822 -2.161476,0 -3.76395,1.4534 -1.602473,1.41614 -1.602473,4.17389 z" style="stroke-width:1.35515738px" id="path4557" inkscape:connector-curvature="0"/>
      <path d="m -8.041922,150.60557 h -15.540267 q 0.149068,2.16148 1.975142,3.50308 1.826075,1.30434 4.173885,1.30434 3.726682,0 5.664557,-2.34781 l 2.3850772,2.60868 q -3.2049472,3.31675 -8.3477692,3.31675 -4.173885,0 -7.117964,-2.75775 -2.906812,-2.79501 -2.906812,-7.45336 0,-4.69562 2.981346,-7.45337 2.981346,-2.75774 7.006163,-2.75774 4.062084,0 6.894363,2.45961 2.832279,2.42234 2.832279,6.70803 z m -15.540267,-3.27948 h 11.366382 q 0,-2.49688 -1.565206,-3.83848 -1.565207,-1.34161 -3.87575,-1.34161 -2.273277,0 -4.099351,1.41614 -1.826075,1.37888 -1.826075,3.76395 z" style="stroke-width:1.35515738px" id="path4559" inkscape:connector-curvature="0"/>
      <path d="M 19.186151,158.69247 H 14.26693 L 3.7949517,132.64296 h 4.9192211 l 8.0123682,19.45329 8.012367,-19.45329 h 4.919221 z" style="stroke-width:1.35515738px" id="path4561" inkscape:connector-curvature="0"/>
      <path d="M 51.206506,150.60557 H 35.66624 q 0.149067,2.16148 1.975141,3.50308 1.826075,1.30434 4.173885,1.30434 3.726683,0 5.664558,-2.34781 l 2.385077,2.60868 q -3.204948,3.31675 -8.34777,3.31675 -4.173884,0 -7.117963,-2.75775 -2.906813,-2.79501 -2.906813,-7.45336 0,-4.69562 2.981346,-7.45337 2.981346,-2.75774 7.006164,-2.75774 4.062084,0 6.894363,2.45961 2.832278,2.42234 2.832278,6.70803 z M 35.66624,147.32609 h 11.366382 q 0,-2.49688 -1.565207,-3.83848 -1.565207,-1.34161 -3.87575,-1.34161 -2.273276,0 -4.099351,1.41614 -1.826074,1.37888 -1.826074,3.76395 z" style="stroke-width:1.35515738px" id="path4563" inkscape:connector-curvature="0"/>
      <path d="m 59.933937,158.69247 h -4.173884 v -27.65198 h 4.173884 z" style="stroke-width:1.35515738px" id="path4565" inkscape:connector-curvature="0"/>
      <path d="m 70.571279,153.47512 q 1.788808,1.78881 4.509286,1.78881 2.720478,0 4.472019,-1.78881 1.788808,-1.82608 1.788808,-4.69562 0,-2.86955 -1.788808,-4.65835 -1.751541,-1.82608 -4.472019,-1.82608 -2.720478,0 -4.509286,1.82608 -1.751541,1.7888 -1.751541,4.65835 0,2.86954 1.751541,4.69562 z m 11.962651,2.57141 q -2.981346,2.94408 -7.453365,2.94408 -4.472019,0 -7.453365,-2.94408 -2.981346,-2.98135 -2.981346,-7.26703 0,-4.28569 2.981346,-7.22977 2.981346,-2.98134 7.453365,-2.98134 4.472019,0 7.453365,2.98134 2.981347,2.94408 2.981347,7.22977 0,4.28568 -2.981347,7.26703 z" style="stroke-width:1.35515738px" id="path4567" inkscape:connector-curvature="0"/>
      <path d="m 99.055955,158.99061 q -4.136618,0 -7.117964,-2.79501 -2.981346,-2.83228 -2.981346,-7.37883 0,-4.54656 3.093146,-7.37884 3.130414,-2.86954 7.602433,-2.86954 4.472016,0 7.565166,3.09314 l -2.45961,3.01862 q -2.57141,-2.23601 -5.18009,-2.23601 -2.608678,0 -4.546553,1.75154 -1.900608,1.71427 -1.900608,4.47202 0,2.72048 1.900608,4.62108 1.900609,1.90061 4.658354,1.90061 2.795009,0 5.254619,-2.53414 l 2.45961,2.68321 q -3.61488,3.65215 -8.347765,3.65215 z" style="stroke-width:1.35515738px" id="path4569" inkscape:connector-curvature="0"/>
      <path d="m 115.90696,158.69247 h -4.17388 v -19.82595 h 4.17388 z m -3.91302,-23.77623 q -0.7826,-0.7826 -0.7826,-1.86334 0,-1.08074 0.7826,-1.86334 0.78261,-0.78261 1.86334,-0.78261 1.08074,0 1.86335,0.78261 0.7826,0.7826 0.7826,1.86334 0,1.08074 -0.7826,1.86334 -0.78261,0.7826 -1.86335,0.7826 -1.08073,0 -1.86334,-0.7826 z" style="stroke-width:1.35515738px" id="path4571" inkscape:connector-curvature="0"/>
      <path d="m 127.06605,142.22054 v 10.06204 q 0,1.41614 0.74534,2.27328 0.74534,0.81987 2.08694,0.81987 1.34161,0 2.57141,-1.30434 l 1.71428,2.94408 q -2.19875,1.97514 -4.88196,1.97514 -2.64594,0 -4.54655,-1.82608 -1.86334,-1.86334 -1.86334,-4.99375 v -9.95024 h -2.49688 v -3.35402 h 2.49688 v -6.22356 h 4.17388 v 6.22356 h 5.21736 v 3.35402 z" style="stroke-width:1.35515738px" id="path4573" inkscape:connector-curvature="0"/>
      <path d="m 139.99646,166.59304 q -2.72048,0 -4.91922,-1.97514 l 1.90061,-3.39128 q 1.30434,1.2298 2.68321,1.2298 1.41614,0 2.27328,-1.0062 0.8944,-1.0062 0.8944,-2.19874 0,-0.52174 -8.01237,-20.38496 h 4.47202 l 5.92543,14.6086 5.92542,-14.6086 h 4.47202 l -9.61484,23.55264 q -0.85714,1.93787 -2.45961,3.05588 -1.60247,1.118 -3.54035,1.118 z" style="stroke-width:1.35515738px" id="path4575" inkscape:connector-curvature="0"/>
    </g>
    <g aria-label="TM" style="font-style:normal;font-variant:normal;font-weight:normal;font-stretch:normal;font-size:7.27604151px;line-height:125%;font-family:Montserrat;-inkscape-font-specification:Montserrat;letter-spacing:0px;word-spacing:0px;fill:#000000;fill-opacity:1;stroke:none;stroke-width:0.26458332px;stroke-linecap:butt;stroke-linejoin:miter;stroke-opacity:1" id="text4542" transform="matrix(0.46465239,0,0,0.46465239,-127.83247,100.81667)">
      <path d="m 157.29451,131.60635 v 4.30014 h -0.85857 v -4.30014 h -1.54252 v -0.78581 h 3.94361 v 0.78581 z" style="stroke-width:0.26458332px" id="path4544" inkscape:connector-curvature="0"/>
      <path d="m 160.62342,135.90649 h -0.85858 v -5.08595 h 1.33879 l 1.53525,3.19418 1.53524,-3.19418 h 1.33152 v 5.08595 h -0.85857 v -3.97271 l -1.77536,3.52888 h -0.48022 l -1.76807,-3.52888 z" style="stroke-width:0.26458332px" id="path4546" inkscape:connector-curvature="0"/>
    </g>
  </g>
</svg>